<svg width="54" height="54" viewBox="0 0 54 54" fill="none" xmlns="http://www.w3.org/2000/svg">
<circle cx="27" cy="27" r="27" fill="#009BF9" fill-opacity="0.1"/>
<path d="M19.3754 13.519C19.5593 13.2995 19.6498 13.0167 19.6275 12.7313C19.6052 12.4459 19.4718 12.1806 19.2561 11.9924C19.0404 11.8042 18.7595 11.708 18.4737 11.7246C18.1879 11.7412 17.92 11.8692 17.7275 12.0811L15.8433 14.2394C14.7749 15.4638 14.171 17.0248 14.1371 18.6494L14.0539 22.6146C14.0479 22.9047 14.1574 23.1853 14.3583 23.3946C14.5592 23.604 14.835 23.725 15.1251 23.7309C15.4152 23.7369 15.6958 23.6275 15.9051 23.4266C16.1145 23.2257 16.2355 22.9499 16.2414 22.6598L16.3231 18.6961C16.3465 17.5844 16.76 16.5164 17.4912 15.6788L19.3754 13.519Z" fill="#016EBD"/>
<path d="M19.3754 13.519C19.5593 13.2995 19.6498 13.0167 19.6275 12.7313C19.6052 12.4459 19.4718 12.1806 19.2561 11.9924C19.0404 11.8042 18.7595 11.708 18.4737 11.7246C18.1879 11.7412 17.92 11.8692 17.7275 12.0811L15.8433 14.2394C14.7749 15.4638 14.171 17.0248 14.1371 18.6494L14.0539 22.6146C14.0479 22.9047 14.1574 23.1853 14.3583 23.3946C14.5592 23.604 14.835 23.725 15.1251 23.7309C15.4152 23.7369 15.6958 23.6275 15.9051 23.4266C16.1145 23.2257 16.2355 22.9499 16.2414 22.6598L16.3231 18.6961C16.3465 17.5844 16.76 16.5164 17.4912 15.6788L19.3754 13.519Z" fill="#8612D2"/>
<path d="M19.3754 13.519C19.5593 13.2995 19.6498 13.0167 19.6275 12.7313C19.6052 12.4459 19.4718 12.1806 19.2561 11.9924C19.0404 11.8042 18.7595 11.708 18.4737 11.7246C18.1879 11.7412 17.92 11.8692 17.7275 12.0811L15.8433 14.2394C14.7749 15.4638 14.171 17.0248 14.1371 18.6494L14.0539 22.6146C14.0479 22.9047 14.1574 23.1853 14.3583 23.3946C14.5592 23.604 14.835 23.725 15.1251 23.7309C15.4152 23.7369 15.6958 23.6275 15.9051 23.4266C16.1145 23.2257 16.2355 22.9499 16.2414 22.6598L16.3231 18.6961C16.3465 17.5844 16.76 16.5164 17.4912 15.6788L19.3754 13.519Z" fill="#009BF9"/>
<path fill-rule="evenodd" clip-rule="evenodd" d="M19.0956 21.2292C19.1935 19.6689 19.8824 18.2047 21.0219 17.1345C22.1615 16.0643 23.6661 15.4686 25.2293 15.4687H26.0416V14.375C26.0416 13.9882 26.1953 13.6173 26.4688 13.3438C26.7423 13.0703 27.1132 12.9167 27.5 12.9167C27.8867 12.9167 28.2577 13.0703 28.5312 13.3438C28.8047 13.6173 28.9583 13.9882 28.9583 14.375V15.4687H29.7706C31.3339 15.4686 32.8384 16.0643 33.978 17.1345C35.1175 18.2047 35.8064 19.6689 35.9043 21.2292L36.2266 26.3829C36.3512 28.3476 37.0109 30.2408 38.1341 31.8575C38.3665 32.1915 38.5086 32.5801 38.5463 32.9852C38.5841 33.3904 38.5164 33.7985 38.3498 34.1698C38.1832 34.541 37.9233 34.8629 37.5955 35.104C37.2676 35.3451 36.883 35.4972 36.4789 35.5456L31.5104 36.1406V37.7083C31.5104 38.772 31.0879 39.792 30.3358 40.5441C29.5837 41.2962 28.5636 41.7187 27.5 41.7187C26.4363 41.7187 25.4163 41.2962 24.6642 40.5441C23.9121 39.792 23.4896 38.772 23.4896 37.7083V36.1406L18.521 35.5442C18.1172 35.4956 17.7328 35.3434 17.4052 35.1024C17.0775 34.8614 16.8178 34.5398 16.6512 34.1687C16.4846 33.7977 16.4168 33.3899 16.4544 32.9849C16.492 32.5799 16.6337 32.1915 16.8658 31.8575C17.9891 30.2408 18.6487 28.3476 18.7733 26.3829L19.0956 21.2292ZM25.6771 37.7083C25.6771 38.1918 25.8691 38.6555 26.211 38.9973C26.5528 39.3392 27.0165 39.5312 27.5 39.5312C27.9834 39.5312 28.4471 39.3392 28.789 38.9973C29.1308 38.6555 29.3229 38.1918 29.3229 37.7083V36.6146H25.6771V37.7083Z" fill="#016EBD"/>
<path fill-rule="evenodd" clip-rule="evenodd" d="M19.0956 21.2292C19.1935 19.6689 19.8824 18.2047 21.0219 17.1345C22.1615 16.0643 23.6661 15.4686 25.2293 15.4687H26.0416V14.375C26.0416 13.9882 26.1953 13.6173 26.4688 13.3438C26.7423 13.0703 27.1132 12.9167 27.5 12.9167C27.8867 12.9167 28.2577 13.0703 28.5312 13.3438C28.8047 13.6173 28.9583 13.9882 28.9583 14.375V15.4687H29.7706C31.3339 15.4686 32.8384 16.0643 33.978 17.1345C35.1175 18.2047 35.8064 19.6689 35.9043 21.2292L36.2266 26.3829C36.3512 28.3476 37.0109 30.2408 38.1341 31.8575C38.3665 32.1915 38.5086 32.5801 38.5463 32.9852C38.5841 33.3904 38.5164 33.7985 38.3498 34.1698C38.1832 34.541 37.9233 34.8629 37.5955 35.104C37.2676 35.3451 36.883 35.4972 36.4789 35.5456L31.5104 36.1406V37.7083C31.5104 38.772 31.0879 39.792 30.3358 40.5441C29.5837 41.2962 28.5636 41.7187 27.5 41.7187C26.4363 41.7187 25.4163 41.2962 24.6642 40.5441C23.9121 39.792 23.4896 38.772 23.4896 37.7083V36.1406L18.521 35.5442C18.1172 35.4956 17.7328 35.3434 17.4052 35.1024C17.0775 34.8614 16.8178 34.5398 16.6512 34.1687C16.4846 33.7977 16.4168 33.3899 16.4544 32.9849C16.492 32.5799 16.6337 32.1915 16.8658 31.8575C17.9891 30.2408 18.6487 28.3476 18.7733 26.3829L19.0956 21.2292ZM25.6771 37.7083C25.6771 38.1918 25.8691 38.6555 26.211 38.9973C26.5528 39.3392 27.0165 39.5312 27.5 39.5312C27.9834 39.5312 28.4471 39.3392 28.789 38.9973C29.1308 38.6555 29.3229 38.1918 29.3229 37.7083V36.6146H25.6771V37.7083Z" fill="#8612D2"/>
<path fill-rule="evenodd" clip-rule="evenodd" d="M19.0956 21.2292C19.1935 19.6689 19.8824 18.2047 21.0219 17.1345C22.1615 16.0643 23.6661 15.4686 25.2293 15.4687H26.0416V14.375C26.0416 13.9882 26.1953 13.6173 26.4688 13.3438C26.7423 13.0703 27.1132 12.9167 27.5 12.9167C27.8867 12.9167 28.2577 13.0703 28.5312 13.3438C28.8047 13.6173 28.9583 13.9882 28.9583 14.375V15.4687H29.7706C31.3339 15.4686 32.8384 16.0643 33.978 17.1345C35.1175 18.2047 35.8064 19.6689 35.9043 21.2292L36.2266 26.3829C36.3512 28.3476 37.0109 30.2408 38.1341 31.8575C38.3665 32.1915 38.5086 32.5801 38.5463 32.9852C38.5841 33.3904 38.5164 33.7985 38.3498 34.1698C38.1832 34.541 37.9233 34.8629 37.5955 35.104C37.2676 35.3451 36.883 35.4972 36.4789 35.5456L31.5104 36.1406V37.7083C31.5104 38.772 31.0879 39.792 30.3358 40.5441C29.5837 41.2962 28.5636 41.7187 27.5 41.7187C26.4363 41.7187 25.4163 41.2962 24.6642 40.5441C23.9121 39.792 23.4896 38.772 23.4896 37.7083V36.1406L18.521 35.5442C18.1172 35.4956 17.7328 35.3434 17.4052 35.1024C17.0775 34.8614 16.8178 34.5398 16.6512 34.1687C16.4846 33.7977 16.4168 33.3899 16.4544 32.9849C16.492 32.5799 16.6337 32.1915 16.8658 31.8575C17.9891 30.2408 18.6487 28.3476 18.7733 26.3829L19.0956 21.2292ZM25.6771 37.7083C25.6771 38.1918 25.8691 38.6555 26.211 38.9973C26.5528 39.3392 27.0165 39.5312 27.5 39.5312C27.9834 39.5312 28.4471 39.3392 28.789 38.9973C29.1308 38.6555 29.3229 38.1918 29.3229 37.7083V36.6146H25.6771V37.7083Z" fill="#009BF9"/>
<path d="M35.7295 11.976C35.511 12.1667 35.3772 12.4364 35.3575 12.7257C35.3378 13.0151 35.4338 13.3004 35.6245 13.5189L37.5086 15.6773C38.2397 16.5155 38.6526 17.5841 38.6753 18.696L38.7584 22.6583C38.7614 22.802 38.7926 22.9436 38.8503 23.0752C38.908 23.2067 38.9911 23.3256 39.0948 23.4251C39.1984 23.5246 39.3207 23.6026 39.4545 23.6549C39.5883 23.7071 39.7311 23.7324 39.8748 23.7295C40.0184 23.7265 40.1601 23.6953 40.2916 23.6376C40.4232 23.5798 40.5421 23.4968 40.6416 23.3931C40.741 23.2895 40.8191 23.1672 40.8713 23.0334C40.9235 22.8996 40.9489 22.7567 40.9459 22.6131L40.8628 18.6494C40.8289 17.0247 40.2249 15.4637 39.1565 14.2394L37.2724 12.081C37.0817 11.8626 36.812 11.7288 36.5227 11.7091C36.2333 11.6894 35.948 11.7854 35.7295 11.976Z" fill="#016EBD"/>
<path d="M35.7295 11.976C35.511 12.1667 35.3772 12.4364 35.3575 12.7257C35.3378 13.0151 35.4338 13.3004 35.6245 13.5189L37.5086 15.6773C38.2397 16.5155 38.6526 17.5841 38.6753 18.696L38.7584 22.6583C38.7614 22.802 38.7926 22.9436 38.8503 23.0752C38.908 23.2067 38.9911 23.3256 39.0948 23.4251C39.1984 23.5246 39.3207 23.6026 39.4545 23.6549C39.5883 23.7071 39.7311 23.7324 39.8748 23.7295C40.0184 23.7265 40.1601 23.6953 40.2916 23.6376C40.4232 23.5798 40.5421 23.4968 40.6416 23.3931C40.741 23.2895 40.8191 23.1672 40.8713 23.0334C40.9235 22.8996 40.9489 22.7567 40.9459 22.6131L40.8628 18.6494C40.8289 17.0247 40.2249 15.4637 39.1565 14.2394L37.2724 12.081C37.0817 11.8626 36.812 11.7288 36.5227 11.7091C36.2333 11.6894 35.948 11.7854 35.7295 11.976Z" fill="#8612D2"/>
<path d="M35.7295 11.976C35.511 12.1667 35.3772 12.4364 35.3575 12.7257C35.3378 13.0151 35.4338 13.3004 35.6245 13.5189L37.5086 15.6773C38.2397 16.5155 38.6526 17.5841 38.6753 18.696L38.7584 22.6583C38.7614 22.802 38.7926 22.9436 38.8503 23.0752C38.908 23.2067 38.9911 23.3256 39.0948 23.4251C39.1984 23.5246 39.3207 23.6026 39.4545 23.6549C39.5883 23.7071 39.7311 23.7324 39.8748 23.7295C40.0184 23.7265 40.1601 23.6953 40.2916 23.6376C40.4232 23.5798 40.5421 23.4968 40.6416 23.3931C40.741 23.2895 40.8191 23.1672 40.8713 23.0334C40.9235 22.8996 40.9489 22.7567 40.9459 22.6131L40.8628 18.6494C40.8289 17.0247 40.2249 15.4637 39.1565 14.2394L37.2724 12.081C37.0817 11.8626 36.812 11.7288 36.5227 11.7091C36.2333 11.6894 35.948 11.7854 35.7295 11.976Z" fill="#009BF9"/>
</svg>
