<svg width="48" height="49" viewBox="0 0 48 49" fill="none" xmlns="http://www.w3.org/2000/svg">
<rect y="0.731689" width="48" height="48" rx="24" fill="#016EBD"/>
<rect y="0.731689" width="48" height="48" rx="24" fill="#8612D2"/>
<rect y="0.731689" width="48" height="48" rx="24" fill="#009BF9"/>
<path d="M31.2786 34.8388L23.8536 27.4138C23.2644 27.8853 22.5867 28.2585 21.8206 28.5335C21.0545 28.8085 20.2394 28.946 19.3751 28.946C17.234 28.946 15.4221 28.2043 13.9395 26.7208C12.4569 25.2374 11.7151 23.4255 11.7144 21.2853C11.7136 19.145 12.4553 17.3331 13.9395 15.8497C15.4237 14.3663 17.2356 13.6245 19.3751 13.6245C21.5146 13.6245 23.3268 14.3663 24.8118 15.8497C26.2968 17.3331 27.0381 19.145 27.0358 21.2853C27.0358 22.1495 26.8983 22.9647 26.6233 23.7308C26.3483 24.4969 25.9751 25.1745 25.5036 25.7638L32.9286 33.1888L31.2786 34.8388ZM19.3751 26.5888C20.8483 26.5888 22.1007 26.0734 23.1324 25.0425C24.164 24.0117 24.6794 22.7593 24.6786 21.2853C24.6779 19.8113 24.1624 18.5592 23.1324 17.5291C22.1023 16.4991 20.8499 15.9833 19.3751 15.9817C17.9003 15.9801 16.6482 16.4959 15.619 17.5291C14.5897 18.5624 14.0739 19.8144 14.0715 21.2853C14.0691 22.7561 14.585 24.0085 15.619 25.0425C16.653 26.0765 17.905 26.592 19.3751 26.5888Z" fill="white"/>
</svg>
