<svg width="40" height="40" viewBox="0 0 40 40" fill="none" xmlns="http://www.w3.org/2000/svg">
<circle cx="20" cy="20" r="20" fill="#009BF9" fill-opacity="0.1"/>
<path d="M17.4762 8.67074C17.3898 8.69613 17.2121 8.7723 17.0852 8.84847C16.7094 9.06683 16.5113 9.41214 16.4656 9.94027L16.4301 10.3008H15.9984H15.5617L14.3023 11.5551L13.043 12.8094V17.4559C13.043 20.8633 13.0582 22.1481 13.1039 22.2953C13.1801 22.5493 13.5 22.9149 13.7742 23.0621L13.9824 23.1739L18.6543 23.1891C23.773 23.2043 23.5547 23.2145 23.9559 22.8996C24.1691 22.7321 24.3875 22.3512 24.4383 22.0668L24.4738 21.8789H24.8191C25.5047 21.8789 25.9262 21.6453 26.1801 21.1274L26.3223 20.8379V15.2774C26.3223 10.8391 26.307 9.68128 26.2562 9.52894C26.1496 9.22425 25.9262 8.96527 25.6316 8.80277L25.3574 8.65042L21.498 8.64027C19.3754 8.63519 17.5676 8.65042 17.4762 8.67074ZM25.2863 9.47308C25.6012 9.66097 25.5859 9.36136 25.5859 15.2774C25.5859 21.1274 25.6012 20.843 25.3117 21.036C25.2254 21.0918 25.073 21.1172 24.8293 21.1172H24.4688L24.4586 16.227C24.4434 11.3672 24.4434 11.3418 24.3367 11.1133C24.1945 10.8188 23.9457 10.5649 23.6562 10.4328C23.4328 10.3313 23.3516 10.3262 20.3199 10.311L17.207 10.2957V10.0672C17.207 9.94027 17.2426 9.77269 17.2832 9.69144C17.4457 9.37659 17.2832 9.39183 21.3863 9.38675C24.8344 9.38675 25.1492 9.39183 25.2863 9.47308ZM23.4937 11.2352L23.6816 11.4078L23.6969 16.684C23.707 20.5637 23.6918 21.9907 23.6512 22.0973C23.6207 22.1735 23.5191 22.2903 23.4328 22.3512L23.2754 22.4629H18.7559C14.4801 22.4629 14.2262 22.4578 14.0941 22.3715C14.0129 22.3207 13.9062 22.209 13.8555 22.1176C13.759 21.9602 13.7539 21.8282 13.7539 17.6489V13.3477H14.3531C15.2672 13.3477 15.643 13.17 15.9172 12.6063C16.0391 12.3575 16.0594 12.2457 16.0797 11.6922L16.1051 11.0625H19.7004H23.3008L23.4937 11.2352ZM15.2723 12.2407C15.1809 12.4641 14.9727 12.5809 14.607 12.6164L14.2871 12.6469L14.7949 12.134L15.3027 11.616L15.318 11.8547C15.3281 11.9868 15.3078 12.1594 15.2723 12.2407Z" fill="#016EBD"/>
<path d="M17.4762 8.67074C17.3898 8.69613 17.2121 8.7723 17.0852 8.84847C16.7094 9.06683 16.5113 9.41214 16.4656 9.94027L16.4301 10.3008H15.9984H15.5617L14.3023 11.5551L13.043 12.8094V17.4559C13.043 20.8633 13.0582 22.1481 13.1039 22.2953C13.1801 22.5493 13.5 22.9149 13.7742 23.0621L13.9824 23.1739L18.6543 23.1891C23.773 23.2043 23.5547 23.2145 23.9559 22.8996C24.1691 22.7321 24.3875 22.3512 24.4383 22.0668L24.4738 21.8789H24.8191C25.5047 21.8789 25.9262 21.6453 26.1801 21.1274L26.3223 20.8379V15.2774C26.3223 10.8391 26.307 9.68128 26.2562 9.52894C26.1496 9.22425 25.9262 8.96527 25.6316 8.80277L25.3574 8.65042L21.498 8.64027C19.3754 8.63519 17.5676 8.65042 17.4762 8.67074ZM25.2863 9.47308C25.6012 9.66097 25.5859 9.36136 25.5859 15.2774C25.5859 21.1274 25.6012 20.843 25.3117 21.036C25.2254 21.0918 25.073 21.1172 24.8293 21.1172H24.4688L24.4586 16.227C24.4434 11.3672 24.4434 11.3418 24.3367 11.1133C24.1945 10.8188 23.9457 10.5649 23.6562 10.4328C23.4328 10.3313 23.3516 10.3262 20.3199 10.311L17.207 10.2957V10.0672C17.207 9.94027 17.2426 9.77269 17.2832 9.69144C17.4457 9.37659 17.2832 9.39183 21.3863 9.38675C24.8344 9.38675 25.1492 9.39183 25.2863 9.47308ZM23.4937 11.2352L23.6816 11.4078L23.6969 16.684C23.707 20.5637 23.6918 21.9907 23.6512 22.0973C23.6207 22.1735 23.5191 22.2903 23.4328 22.3512L23.2754 22.4629H18.7559C14.4801 22.4629 14.2262 22.4578 14.0941 22.3715C14.0129 22.3207 13.9062 22.209 13.8555 22.1176C13.759 21.9602 13.7539 21.8282 13.7539 17.6489V13.3477H14.3531C15.2672 13.3477 15.643 13.17 15.9172 12.6063C16.0391 12.3575 16.0594 12.2457 16.0797 11.6922L16.1051 11.0625H19.7004H23.3008L23.4937 11.2352ZM15.2723 12.2407C15.1809 12.4641 14.9727 12.5809 14.607 12.6164L14.2871 12.6469L14.7949 12.134L15.3027 11.616L15.318 11.8547C15.3281 11.9868 15.3078 12.1594 15.2723 12.2407Z" fill="#8612D2"/>
<path d="M17.4762 8.67074C17.3898 8.69613 17.2121 8.7723 17.0852 8.84847C16.7094 9.06683 16.5113 9.41214 16.4656 9.94027L16.4301 10.3008H15.9984H15.5617L14.3023 11.5551L13.043 12.8094V17.4559C13.043 20.8633 13.0582 22.1481 13.1039 22.2953C13.1801 22.5493 13.5 22.9149 13.7742 23.0621L13.9824 23.1739L18.6543 23.1891C23.773 23.2043 23.5547 23.2145 23.9559 22.8996C24.1691 22.7321 24.3875 22.3512 24.4383 22.0668L24.4738 21.8789H24.8191C25.5047 21.8789 25.9262 21.6453 26.1801 21.1274L26.3223 20.8379V15.2774C26.3223 10.8391 26.307 9.68128 26.2562 9.52894C26.1496 9.22425 25.9262 8.96527 25.6316 8.80277L25.3574 8.65042L21.498 8.64027C19.3754 8.63519 17.5676 8.65042 17.4762 8.67074ZM25.2863 9.47308C25.6012 9.66097 25.5859 9.36136 25.5859 15.2774C25.5859 21.1274 25.6012 20.843 25.3117 21.036C25.2254 21.0918 25.073 21.1172 24.8293 21.1172H24.4688L24.4586 16.227C24.4434 11.3672 24.4434 11.3418 24.3367 11.1133C24.1945 10.8188 23.9457 10.5649 23.6562 10.4328C23.4328 10.3313 23.3516 10.3262 20.3199 10.311L17.207 10.2957V10.0672C17.207 9.94027 17.2426 9.77269 17.2832 9.69144C17.4457 9.37659 17.2832 9.39183 21.3863 9.38675C24.8344 9.38675 25.1492 9.39183 25.2863 9.47308ZM23.4937 11.2352L23.6816 11.4078L23.6969 16.684C23.707 20.5637 23.6918 21.9907 23.6512 22.0973C23.6207 22.1735 23.5191 22.2903 23.4328 22.3512L23.2754 22.4629H18.7559C14.4801 22.4629 14.2262 22.4578 14.0941 22.3715C14.0129 22.3207 13.9062 22.209 13.8555 22.1176C13.759 21.9602 13.7539 21.8282 13.7539 17.6489V13.3477H14.3531C15.2672 13.3477 15.643 13.17 15.9172 12.6063C16.0391 12.3575 16.0594 12.2457 16.0797 11.6922L16.1051 11.0625H19.7004H23.3008L23.4937 11.2352ZM15.2723 12.2407C15.1809 12.4641 14.9727 12.5809 14.607 12.6164L14.2871 12.6469L14.7949 12.134L15.3027 11.616L15.318 11.8547C15.3281 11.9868 15.3078 12.1594 15.2723 12.2407Z" fill="#009BF9"/>
<path d="M16.7195 13.5406C16.5926 13.6218 16.5469 13.825 16.5469 14.2769C16.5469 14.6832 16.5621 14.7746 16.6535 14.8914C16.7906 15.064 17.0141 15.0691 17.1816 14.8965C17.2883 14.7949 17.3086 14.7238 17.3086 14.4902V14.2109H17.6031C17.8266 14.2109 17.923 14.1855 17.984 14.1195C18.0906 14.0027 18.0957 13.759 17.9891 13.6117C17.918 13.505 17.8723 13.5 17.3441 13.5C17.0293 13.5 16.75 13.5203 16.7195 13.5406Z" fill="#016EBD"/>
<path d="M16.7195 13.5406C16.5926 13.6218 16.5469 13.825 16.5469 14.2769C16.5469 14.6832 16.5621 14.7746 16.6535 14.8914C16.7906 15.064 17.0141 15.0691 17.1816 14.8965C17.2883 14.7949 17.3086 14.7238 17.3086 14.4902V14.2109H17.6031C17.8266 14.2109 17.923 14.1855 17.984 14.1195C18.0906 14.0027 18.0957 13.759 17.9891 13.6117C17.918 13.505 17.8723 13.5 17.3441 13.5C17.0293 13.5 16.75 13.5203 16.7195 13.5406Z" fill="#8612D2"/>
<path d="M16.7195 13.5406C16.5926 13.6218 16.5469 13.825 16.5469 14.2769C16.5469 14.6832 16.5621 14.7746 16.6535 14.8914C16.7906 15.064 17.0141 15.0691 17.1816 14.8965C17.2883 14.7949 17.3086 14.7238 17.3086 14.4902V14.2109H17.6031C17.8266 14.2109 17.923 14.1855 17.984 14.1195C18.0906 14.0027 18.0957 13.759 17.9891 13.6117C17.918 13.505 17.8723 13.5 17.3441 13.5C17.0293 13.5 16.75 13.5203 16.7195 13.5406Z" fill="#009BF9"/>
<path d="M19.9845 13.5914C19.8677 13.7184 19.8728 14.023 19.9896 14.1246C20.0556 14.1855 20.1775 14.2109 20.3705 14.2109H20.6599V14.4902C20.6599 14.7238 20.6802 14.7949 20.7869 14.8965C20.8529 14.9676 20.9697 15.0234 21.0408 15.0234C21.1119 15.0234 21.2287 14.9676 21.2947 14.8965C21.4115 14.7848 21.4216 14.7391 21.4216 14.2719C21.4216 13.8402 21.4064 13.7488 21.315 13.632C21.2134 13.5051 21.1982 13.5 20.6396 13.5C20.147 13.5 20.0556 13.5152 19.9845 13.5914Z" fill="#016EBD"/>
<path d="M19.9845 13.5914C19.8677 13.7184 19.8728 14.023 19.9896 14.1246C20.0556 14.1855 20.1775 14.2109 20.3705 14.2109H20.6599V14.4902C20.6599 14.7238 20.6802 14.7949 20.7869 14.8965C20.8529 14.9676 20.9697 15.0234 21.0408 15.0234C21.1119 15.0234 21.2287 14.9676 21.2947 14.8965C21.4115 14.7848 21.4216 14.7391 21.4216 14.2719C21.4216 13.8402 21.4064 13.7488 21.315 13.632C21.2134 13.5051 21.1982 13.5 20.6396 13.5C20.147 13.5 20.0556 13.5152 19.9845 13.5914Z" fill="#8612D2"/>
<path d="M19.9845 13.5914C19.8677 13.7184 19.8728 14.023 19.9896 14.1246C20.0556 14.1855 20.1775 14.2109 20.3705 14.2109H20.6599V14.4902C20.6599 14.7238 20.6802 14.7949 20.7869 14.8965C20.8529 14.9676 20.9697 15.0234 21.0408 15.0234C21.1119 15.0234 21.2287 14.9676 21.2947 14.8965C21.4115 14.7848 21.4216 14.7391 21.4216 14.2719C21.4216 13.8402 21.4064 13.7488 21.315 13.632C21.2134 13.5051 21.1982 13.5 20.6396 13.5C20.147 13.5 20.0556 13.5152 19.9845 13.5914Z" fill="#009BF9"/>
<path d="M16.6738 16.5215C16.557 16.6383 16.5469 16.6789 16.5469 17.1816C16.5469 17.9078 16.557 17.918 17.3238 17.918C17.8215 17.918 17.9129 17.9027 17.984 17.8266C18.0906 17.7098 18.0957 17.466 17.9891 17.3188C17.923 17.2223 17.8672 17.207 17.6082 17.207H17.3086V16.9277C17.3086 16.6941 17.2883 16.623 17.1816 16.5215C17.1156 16.4504 16.9988 16.3945 16.9277 16.3945C16.8566 16.3945 16.7398 16.4504 16.6738 16.5215Z" fill="#016EBD"/>
<path d="M16.6738 16.5215C16.557 16.6383 16.5469 16.6789 16.5469 17.1816C16.5469 17.9078 16.557 17.918 17.3238 17.918C17.8215 17.918 17.9129 17.9027 17.984 17.8266C18.0906 17.7098 18.0957 17.466 17.9891 17.3188C17.923 17.2223 17.8672 17.207 17.6082 17.207H17.3086V16.9277C17.3086 16.6941 17.2883 16.623 17.1816 16.5215C17.1156 16.4504 16.9988 16.3945 16.9277 16.3945C16.8566 16.3945 16.7398 16.4504 16.6738 16.5215Z" fill="#8612D2"/>
<path d="M16.6738 16.5215C16.557 16.6383 16.5469 16.6789 16.5469 17.1816C16.5469 17.9078 16.557 17.918 17.3238 17.918C17.8215 17.918 17.9129 17.9027 17.984 17.8266C18.0906 17.7098 18.0957 17.466 17.9891 17.3188C17.923 17.2223 17.8672 17.207 17.6082 17.207H17.3086V16.9277C17.3086 16.6941 17.2883 16.623 17.1816 16.5215C17.1156 16.4504 16.9988 16.3945 16.9277 16.3945C16.8566 16.3945 16.7398 16.4504 16.6738 16.5215Z" fill="#009BF9"/>
<path d="M20.7871 16.5215C20.6805 16.623 20.6602 16.6941 20.6602 16.9277V17.207H20.3656C20.0152 17.207 19.8984 17.2984 19.8984 17.5727C19.8984 17.8723 20 17.918 20.6398 17.918C20.9445 17.918 21.2188 17.8977 21.2492 17.8773C21.3762 17.7961 21.4219 17.593 21.4219 17.1309C21.4219 16.6789 21.4117 16.6332 21.2949 16.5215C21.2289 16.4504 21.1121 16.3945 21.041 16.3945C20.9699 16.3945 20.8531 16.4504 20.7871 16.5215Z" fill="#016EBD"/>
<path d="M20.7871 16.5215C20.6805 16.623 20.6602 16.6941 20.6602 16.9277V17.207H20.3656C20.0152 17.207 19.8984 17.2984 19.8984 17.5727C19.8984 17.8723 20 17.918 20.6398 17.918C20.9445 17.918 21.2188 17.8977 21.2492 17.8773C21.3762 17.7961 21.4219 17.593 21.4219 17.1309C21.4219 16.6789 21.4117 16.6332 21.2949 16.5215C21.2289 16.4504 21.1121 16.3945 21.041 16.3945C20.9699 16.3945 20.8531 16.4504 20.7871 16.5215Z" fill="#8612D2"/>
<path d="M20.7871 16.5215C20.6805 16.623 20.6602 16.6941 20.6602 16.9277V17.207H20.3656C20.0152 17.207 19.8984 17.2984 19.8984 17.5727C19.8984 17.8723 20 17.918 20.6398 17.918C20.9445 17.918 21.2188 17.8977 21.2492 17.8773C21.3762 17.7961 21.4219 17.593 21.4219 17.1309C21.4219 16.6789 21.4117 16.6332 21.2949 16.5215C21.2289 16.4504 21.1121 16.3945 21.041 16.3945C20.9699 16.3945 20.8531 16.4504 20.7871 16.5215Z" fill="#009BF9"/>
<path d="M15.242 19.1063C14.9779 19.223 14.9677 19.6039 15.2267 19.7461C15.2877 19.7766 16.5166 19.7969 18.7713 19.7969H22.2193L22.3259 19.6801C22.4631 19.5328 22.4681 19.3398 22.3412 19.1824L22.2447 19.0605L18.822 19.0504C16.0037 19.0402 15.374 19.0504 15.242 19.1063Z" fill="#016EBD"/>
<path d="M15.242 19.1063C14.9779 19.223 14.9677 19.6039 15.2267 19.7461C15.2877 19.7766 16.5166 19.7969 18.7713 19.7969H22.2193L22.3259 19.6801C22.4631 19.5328 22.4681 19.3398 22.3412 19.1824L22.2447 19.0605L18.822 19.0504C16.0037 19.0402 15.374 19.0504 15.242 19.1063Z" fill="#8612D2"/>
<path d="M15.242 19.1063C14.9779 19.223 14.9677 19.6039 15.2267 19.7461C15.2877 19.7766 16.5166 19.7969 18.7713 19.7969H22.2193L22.3259 19.6801C22.4631 19.5328 22.4681 19.3398 22.3412 19.1824L22.2447 19.0605L18.822 19.0504C16.0037 19.0402 15.374 19.0504 15.242 19.1063Z" fill="#009BF9"/>
<path d="M15.2419 20.6602C15.0032 20.7566 14.9575 21.0563 15.1505 21.2441L15.2724 21.3711H18.7204C22.1329 21.3711 22.1735 21.3711 22.3056 21.2645C22.4782 21.1273 22.4833 20.9039 22.3107 20.7363L22.1888 20.6094L18.7712 20.6145C16.8923 20.6145 15.3028 20.6348 15.2419 20.6602Z" fill="#016EBD"/>
<path d="M15.2419 20.6602C15.0032 20.7566 14.9575 21.0563 15.1505 21.2441L15.2724 21.3711H18.7204C22.1329 21.3711 22.1735 21.3711 22.3056 21.2645C22.4782 21.1273 22.4833 20.9039 22.3107 20.7363L22.1888 20.6094L18.7712 20.6145C16.8923 20.6145 15.3028 20.6348 15.2419 20.6602Z" fill="#8612D2"/>
<path d="M15.2419 20.6602C15.0032 20.7566 14.9575 21.0563 15.1505 21.2441L15.2724 21.3711H18.7204C22.1329 21.3711 22.1735 21.3711 22.3056 21.2645C22.4782 21.1273 22.4833 20.9039 22.3107 20.7363L22.1888 20.6094L18.7712 20.6145C16.8923 20.6145 15.3028 20.6348 15.2419 20.6602Z" fill="#009BF9"/>
<path d="M27.4549 23.6715C27.2771 23.7679 26.749 24.0625 26.2717 24.3265C24.4588 25.3422 23.3771 25.8652 22.5849 26.1191C22.0314 26.2918 22.0111 26.2918 21.9045 26.0074C21.8029 25.7484 21.5287 25.4133 21.3256 25.3066C21.2545 25.2711 20.4521 25.0172 19.5431 24.748C17.7099 24.1945 17.4256 24.1488 16.8314 24.2859C16.6334 24.3316 16.1459 24.5297 15.7396 24.7226C14.7951 25.1695 13.7541 25.4844 13.7541 25.3269C13.7541 25.2203 13.5052 24.9715 13.3174 24.8953C13.0736 24.7937 11.3674 24.7937 11.1744 24.8953C10.9459 25.0172 10.7681 25.2406 10.7123 25.4844C10.6463 25.7687 10.6412 30.4051 10.7072 30.6844C10.7681 30.9586 10.9002 31.1262 11.1693 31.2633C11.3826 31.375 11.4385 31.3801 12.3068 31.3648C13.1193 31.3496 13.2412 31.3394 13.3986 31.2429C13.6525 31.0957 13.8049 30.8469 13.8049 30.5828V30.3594H14.4802C15.2877 30.3594 16.7146 30.4406 17.3088 30.5168C17.5474 30.5472 18.1314 30.6539 18.6037 30.7554C19.3806 30.9179 19.5431 30.9383 20.2541 30.9383C20.965 30.9383 21.0869 30.923 21.4982 30.8012C22.976 30.3543 25.3779 28.7851 27.6427 26.7844C29.1967 25.4082 29.2982 25.2863 29.2982 24.7226C29.3033 24.3824 29.217 24.1488 28.9935 23.8949C28.6127 23.4633 28.0185 23.3769 27.4549 23.6715ZM28.4451 24.4179C28.6787 24.682 28.6381 24.8394 28.242 25.2304C27.3888 26.0531 25.581 27.5562 24.5959 28.2621C23.4584 29.0746 22.1127 29.8211 21.3967 30.0445C20.5283 30.3086 20.2033 30.3086 18.7814 30.0242C17.4256 29.75 16.9076 29.6992 15.2877 29.6637L13.8049 29.6332V27.8965V26.1547L14.201 26.0683C14.8205 25.9312 15.4248 25.7129 15.9783 25.4387C16.2576 25.3015 16.6232 25.139 16.7908 25.0832C17.3443 24.8953 17.5322 24.9258 19.3248 25.459C20.7568 25.8855 20.9549 25.9566 21.0818 26.0937C21.3154 26.3527 21.2443 26.7336 20.9244 26.8859C20.7771 26.9519 20.706 26.957 20.4877 26.9113C20.3455 26.8808 19.9037 26.7894 19.5025 26.7031C18.426 26.4746 17.7302 26.5 16.8771 26.7996C16.7095 26.8605 16.542 26.9469 16.5115 26.9926C16.349 27.2109 16.5115 27.5664 16.7756 27.5664C16.8467 27.5664 17.1006 27.5054 17.3443 27.4344C18.0146 27.2312 18.5732 27.2414 19.6142 27.4801C20.8279 27.7594 21.1529 27.7289 21.5998 27.2922C21.8334 27.0637 21.8842 27.0433 22.2498 26.9773C23.1842 26.8097 24.672 26.109 27.3635 24.5754C28.0744 24.1691 28.1963 24.1488 28.4451 24.4179ZM13.0381 25.6062C13.0787 25.6519 13.0888 26.3578 13.0838 28.1301L13.0685 30.5879H12.256H11.4435L11.4283 28.1301C11.4232 26.3578 11.4334 25.6519 11.474 25.6062C11.5197 25.5504 11.7076 25.5351 12.256 25.5351C12.8045 25.5351 12.9924 25.5504 13.0381 25.6062Z" fill="#016EBD"/>
<path d="M27.4549 23.6715C27.2771 23.7679 26.749 24.0625 26.2717 24.3265C24.4588 25.3422 23.3771 25.8652 22.5849 26.1191C22.0314 26.2918 22.0111 26.2918 21.9045 26.0074C21.8029 25.7484 21.5287 25.4133 21.3256 25.3066C21.2545 25.2711 20.4521 25.0172 19.5431 24.748C17.7099 24.1945 17.4256 24.1488 16.8314 24.2859C16.6334 24.3316 16.1459 24.5297 15.7396 24.7226C14.7951 25.1695 13.7541 25.4844 13.7541 25.3269C13.7541 25.2203 13.5052 24.9715 13.3174 24.8953C13.0736 24.7937 11.3674 24.7937 11.1744 24.8953C10.9459 25.0172 10.7681 25.2406 10.7123 25.4844C10.6463 25.7687 10.6412 30.4051 10.7072 30.6844C10.7681 30.9586 10.9002 31.1262 11.1693 31.2633C11.3826 31.375 11.4385 31.3801 12.3068 31.3648C13.1193 31.3496 13.2412 31.3394 13.3986 31.2429C13.6525 31.0957 13.8049 30.8469 13.8049 30.5828V30.3594H14.4802C15.2877 30.3594 16.7146 30.4406 17.3088 30.5168C17.5474 30.5472 18.1314 30.6539 18.6037 30.7554C19.3806 30.9179 19.5431 30.9383 20.2541 30.9383C20.965 30.9383 21.0869 30.923 21.4982 30.8012C22.976 30.3543 25.3779 28.7851 27.6427 26.7844C29.1967 25.4082 29.2982 25.2863 29.2982 24.7226C29.3033 24.3824 29.217 24.1488 28.9935 23.8949C28.6127 23.4633 28.0185 23.3769 27.4549 23.6715ZM28.4451 24.4179C28.6787 24.682 28.6381 24.8394 28.242 25.2304C27.3888 26.0531 25.581 27.5562 24.5959 28.2621C23.4584 29.0746 22.1127 29.8211 21.3967 30.0445C20.5283 30.3086 20.2033 30.3086 18.7814 30.0242C17.4256 29.75 16.9076 29.6992 15.2877 29.6637L13.8049 29.6332V27.8965V26.1547L14.201 26.0683C14.8205 25.9312 15.4248 25.7129 15.9783 25.4387C16.2576 25.3015 16.6232 25.139 16.7908 25.0832C17.3443 24.8953 17.5322 24.9258 19.3248 25.459C20.7568 25.8855 20.9549 25.9566 21.0818 26.0937C21.3154 26.3527 21.2443 26.7336 20.9244 26.8859C20.7771 26.9519 20.706 26.957 20.4877 26.9113C20.3455 26.8808 19.9037 26.7894 19.5025 26.7031C18.426 26.4746 17.7302 26.5 16.8771 26.7996C16.7095 26.8605 16.542 26.9469 16.5115 26.9926C16.349 27.2109 16.5115 27.5664 16.7756 27.5664C16.8467 27.5664 17.1006 27.5054 17.3443 27.4344C18.0146 27.2312 18.5732 27.2414 19.6142 27.4801C20.8279 27.7594 21.1529 27.7289 21.5998 27.2922C21.8334 27.0637 21.8842 27.0433 22.2498 26.9773C23.1842 26.8097 24.672 26.109 27.3635 24.5754C28.0744 24.1691 28.1963 24.1488 28.4451 24.4179ZM13.0381 25.6062C13.0787 25.6519 13.0888 26.3578 13.0838 28.1301L13.0685 30.5879H12.256H11.4435L11.4283 28.1301C11.4232 26.3578 11.4334 25.6519 11.474 25.6062C11.5197 25.5504 11.7076 25.5351 12.256 25.5351C12.8045 25.5351 12.9924 25.5504 13.0381 25.6062Z" fill="#8612D2"/>
<path d="M27.4549 23.6715C27.2771 23.7679 26.749 24.0625 26.2717 24.3265C24.4588 25.3422 23.3771 25.8652 22.5849 26.1191C22.0314 26.2918 22.0111 26.2918 21.9045 26.0074C21.8029 25.7484 21.5287 25.4133 21.3256 25.3066C21.2545 25.2711 20.4521 25.0172 19.5431 24.748C17.7099 24.1945 17.4256 24.1488 16.8314 24.2859C16.6334 24.3316 16.1459 24.5297 15.7396 24.7226C14.7951 25.1695 13.7541 25.4844 13.7541 25.3269C13.7541 25.2203 13.5052 24.9715 13.3174 24.8953C13.0736 24.7937 11.3674 24.7937 11.1744 24.8953C10.9459 25.0172 10.7681 25.2406 10.7123 25.4844C10.6463 25.7687 10.6412 30.4051 10.7072 30.6844C10.7681 30.9586 10.9002 31.1262 11.1693 31.2633C11.3826 31.375 11.4385 31.3801 12.3068 31.3648C13.1193 31.3496 13.2412 31.3394 13.3986 31.2429C13.6525 31.0957 13.8049 30.8469 13.8049 30.5828V30.3594H14.4802C15.2877 30.3594 16.7146 30.4406 17.3088 30.5168C17.5474 30.5472 18.1314 30.6539 18.6037 30.7554C19.3806 30.9179 19.5431 30.9383 20.2541 30.9383C20.965 30.9383 21.0869 30.923 21.4982 30.8012C22.976 30.3543 25.3779 28.7851 27.6427 26.7844C29.1967 25.4082 29.2982 25.2863 29.2982 24.7226C29.3033 24.3824 29.217 24.1488 28.9935 23.8949C28.6127 23.4633 28.0185 23.3769 27.4549 23.6715ZM28.4451 24.4179C28.6787 24.682 28.6381 24.8394 28.242 25.2304C27.3888 26.0531 25.581 27.5562 24.5959 28.2621C23.4584 29.0746 22.1127 29.8211 21.3967 30.0445C20.5283 30.3086 20.2033 30.3086 18.7814 30.0242C17.4256 29.75 16.9076 29.6992 15.2877 29.6637L13.8049 29.6332V27.8965V26.1547L14.201 26.0683C14.8205 25.9312 15.4248 25.7129 15.9783 25.4387C16.2576 25.3015 16.6232 25.139 16.7908 25.0832C17.3443 24.8953 17.5322 24.9258 19.3248 25.459C20.7568 25.8855 20.9549 25.9566 21.0818 26.0937C21.3154 26.3527 21.2443 26.7336 20.9244 26.8859C20.7771 26.9519 20.706 26.957 20.4877 26.9113C20.3455 26.8808 19.9037 26.7894 19.5025 26.7031C18.426 26.4746 17.7302 26.5 16.8771 26.7996C16.7095 26.8605 16.542 26.9469 16.5115 26.9926C16.349 27.2109 16.5115 27.5664 16.7756 27.5664C16.8467 27.5664 17.1006 27.5054 17.3443 27.4344C18.0146 27.2312 18.5732 27.2414 19.6142 27.4801C20.8279 27.7594 21.1529 27.7289 21.5998 27.2922C21.8334 27.0637 21.8842 27.0433 22.2498 26.9773C23.1842 26.8097 24.672 26.109 27.3635 24.5754C28.0744 24.1691 28.1963 24.1488 28.4451 24.4179ZM13.0381 25.6062C13.0787 25.6519 13.0888 26.3578 13.0838 28.1301L13.0685 30.5879H12.256H11.4435L11.4283 28.1301C11.4232 26.3578 11.4334 25.6519 11.474 25.6062C11.5197 25.5504 11.7076 25.5351 12.256 25.5351C12.8045 25.5351 12.9924 25.5504 13.0381 25.6062Z" fill="#009BF9"/>
</svg>
